{"title":"Silverado  (Western 1985)  Kevin Kline, Scott Glenn &amp; Kevin ","uid":9248244,"size":530036491,"categoryP":"video","categoryS":"movies","magnet":"?xt=urn:btih:f08ea5dd14a48580ad07494322287d007d6c44ac&amp;dn=Silverado++%28Western+1985%29++Kevin+Kline%2C+Scott+Glenn+%26amp%3B+Kevin+&amp;tr=udp%3A%2F%2Ftracker.openbittorrent.com%3A80&amp;tr=udp%3A%2F%2Fopen.demonii.com%3A1337&amp;tr=udp%3A%2F%2Ftracker.coppersurfer.tk%3A6969&amp;tr=udp%3A%2F%2Fexodus.desync.com%3A6969","seeders":1,"leechers":0,"uploader":"BurtonW","files":1,"time":1385412531,"description":"Very good quality!\n\nNo subtitles.\n\nThe screenshots can be viewed at KickassTorrents under the same torrent title.\n\n\nStoryline\n\nIn 1880, four men travel together to the city of Silverado. They come across with many dangers before they finally engage the &quot;bad guys&quot; and bring peace and equality back to the city.\n\n\nTechnical info:\n\n\nGeneral:\n\nComplete name                  : Silverado  (Western 1985)  Kevin Kline, Scott Glenn &amp; Kevin Costner.mp4\nFormat                         : MPEG-4\nFormat profile                 : Base Media / Version 2\nCodec ID                       : mp42\nFile size                      : 505 MiB\nDuration                       : 2h 12mn\nOverall bit rate mode          : Variable\nOverall bit rate               : 533 Kbps\nEncoded date                   : UTC 2013-10-21 07:37:04\nTagged date                    : UTC 2013-10-21 10:18:58\n\n\nVideo:\n\nID                             : 1\nFormat                         : AVC\nFormat/Info                    : Advanced Video Codec\nFormat profile                 : &lt;a class=&quot;__cf_email__&quot; href=&quot;/cdn-cgi/l/email-protection&quot; data-cfemail=&quot;abe6cac2c5ebe79f859b&quot;&gt;[email&amp;#160;protected]&lt;/a&gt;&lt;script cf-hash='f9e31' type=&quot;text/javascript&quot;&gt;\n/* &lt;![CDATA[ */!function(){try{var t=&quot;currentScript&quot;in document?document.currentScript:function(){for(var t=document.getElementsByTagName(&quot;script&quot;),e=t.length;e--;)if(t[e].getAttribute(&quot;cf-hash&quot;))return t[e]}();if(t&amp;&amp;t.previousSibling){var e,r,n,i,c=t.previousSibling,a=c.getAttribute(&quot;data-cfemail&quot;);if(a){for(e=&quot;&quot;,r=parseInt(a.substr(0,2),16),n=2;a.length-n;n+=2)i=parseInt(a.substr(n,2),16)^r,e+=String.fromCharCode(i);e=document.createTextNode(e),c.parentNode.replaceChild(e,c)}}}catch(u){}}();/* ]]&gt; */&lt;/script&gt;\nFormat settings, CABAC         : Yes\nFormat settings, ReFrames      : 4 frames\nCodec ID                       : avc1\nCodec ID/Info                  : Advanced Video Coding\nDuration                       : 2h 12mn\nBit rate mode                  : Variable\nBit rate                       : 368 Kbps\nWidth                          : 720 pixels\nHeight                         : 480 pixels\nDisplay aspect ratio           : 3:2\nFrame rate mode                : Variable\nFrame rate                     : 23.976 fps\nMinimum frame rate             : 23.974 fps\nMaximum frame rate             : 23.981 fps\nStandard                       : NTSC\nColor space                    : YUV\nChroma subsampling             : 4:2:0\nBit depth                      : 8 bits\nScan type                      : Progressive\nBits/(Pixel*Frame)             : 0.044\nStream size                    : 349 MiB (69%)\nWriting library                : x264 core 130 r2273 b3065e6\nEncoding settings              : Deleted\nEncoded date                   : UTC 2013-10-21 07:37:04\nTagged date                    : UTC 2013-10-21 10:18:58\nColor primaries                : BT.709\nTransfer characteristics       : BT.709\nMatrix coefficients            : BT.709\n\nAudio:\n\nID                             : 2\nFormat                         : AAC\nFormat/Info                    : Advanced Audio Codec\nFormat profile                 : LC\nCodec ID                       : 40\nDuration                       : 2h 12mn\nBit rate mode                  : Variable\nBit rate                       : 160 Kbps\nMaximum bit rate               : 294 Kbps\nChannel(s)                     : 2 channels\nChannel positions              : Front: L R\nSampling rate                  : 48.0 KHz\nCompression mode               : Lossy\nDelay relative to video        : 83ms\nStream size                    : 152 MiB (30%)\nEncoded date                   : UTC 2013-10-21 07:37:04\nTagged date                    : UTC 2013-10-21 10:18:58\n\n","torrent":{"xt":"urn:btih:f08ea5dd14a48580ad07494322287d007d6c44ac","amp;dn":"Silverado++%28Western+1985%29++Kevin+Kline%2C+Scott+Glenn+%26amp%3B+Kevin+","amp;tr":["udp%3A%2F%2Ftracker.openbittorrent.com%3A80","udp%3A%2F%2Fopen.demonii.com%3A1337","udp%3A%2F%2Ftracker.coppersurfer.tk%3A6969","udp%3A%2F%2Fexodus.desync.com%3A6969"],"infoHash":"f08ea5dd14a48580ad07494322287d007d6c44ac","infoHashBuffer":{"type":"Buffer","data":[240,142,165,221,20,164,133,128,173,7,73,67,34,40,125,0,125,108,68,172]},"announce":[],"urlList":[]}}